<svg xmlns="http://www.w3.org/2000/svg" viewBox="0 0 500 500"><g id="freepik--background-complete--inject-31"><path d="M61,218.4,61.13,186H54.94l-.13,32.44a9.88,9.88,0,0,1-4.39,8.19h0A9.88,9.88,0,0,0,46,234.78l-.1,30.15H69.57l.1-30.15a9.79,9.79,0,0,0-4.32-8.21h0A9.88,9.88,0,0,1,61,218.4Z" style="fill:#ebebeb"></path><path d="M421.34,362.79c0-.56-1.91-56.26-11-65.07-8.81-8.56-18.92-.32-19.35,0l-.91-1.09c.12-.1,11.53-9.41,21.25,0,9.47,9.2,11.32,63.72,11.39,66Z" style="fill:#e0e0e0"></path><path d="M422.11,373.74c-.06-.67-6.19-66.87,18-94.62l1.07.94c-23.78,27.28-17.71,92.88-17.64,93.54Z" style="fill:#e0e0e0"></path><path d="M421.22,366.74l-1.41-.1c.05-.75,4.73-75.26-13-91.57l1-1.05C426,290.79,421.42,363.64,421.22,366.74Z" style="fill:#e0e0e0"></path><path d="M423.53,366.69h-1.42c0-2.05.59-50.33,14.3-58.18a9.7,9.7,0,0,1,8.87-.87c8.29,3.43,12.4,18.19,12.57,18.81l-1.36.38c0-.15-4.1-14.72-11.75-17.88a8.35,8.35,0,0,0-7.63.79C424.1,317.18,423.53,366.2,423.53,366.69Z" style="fill:#e0e0e0"></path><path d="M418.19,366.73l-1.42-.08c0-.38,2.07-38.15-8.12-51.46-2.47-3.22-5.15-4.76-8-4.56-6.68.46-12.28,10.24-12.34,10.34l-1.23-.7c.24-.43,6-10.53,13.46-11.06,3.33-.23,6.44,1.49,9.21,5.12C420.29,328.05,418.28,365.16,418.19,366.73Z" style="fill:#e0e0e0"></path><path d="M420.42,371.87c-.27-3.67-6.66-89.91,4.58-105.1l1.14.84c-10.93,14.77-4.37,103.26-4.3,104.15Z" style="fill:#e0e0e0"></path><path d="M448.34,316.37s-6.74,2.49-4.74,8.35,23.32,15.52,23.32,15.52,8.93-8.18.73-21.49S448.52,312.17,448.34,316.37Z" style="fill:#ebebeb"></path><path d="M419,305.2s7.17-.3,7.58,5.89-15.55,23.3-15.55,23.3-11.39-4.12-8.94-19.56S417.25,301.4,419,305.2Z" style="fill:#ebebeb"></path><path d="M413,275.59s4.78-.51,4.4-3.43-18.6-10.41-29.35,1.72c0,0,6.88,11.82,16.83,12S413,275.59,413,275.59Z" style="fill:#ebebeb"></path><path d="M421.88,268.51s-4.34,2.1-5.55-.58,10.28-18.68,25.82-14.07c0,0,.41,13.67-8,19.07S421.88,268.51,421.88,268.51Z" style="fill:#ebebeb"></path><path d="M399.22,314s3.3-2.66-.26-4-21.06-.93-21.24,16.4c0,0,20.37,3.38,22.89-3.22S399.22,314,399.22,314Z" style="fill:#ebebeb"></path><path d="M440.75,275.16s-3.3-2.67.27-4,21.05-.93,21.23,16.39c0,0-20.37,3.39-22.89-3.21S440.75,275.16,440.75,275.16Z" style="fill:#ebebeb"></path><path d="M430,289.11s-.29-3.24,2.32-2,11.74,11.11,2.29,20.44c0,0-12.73-9.42-10.43-14.33S430,289.11,430,289.11Z" style="fill:#ebebeb"></path><path d="M396.27,293.73s2-2.59-.92-2.91S379.5,294,382.52,306.9c0,0,15.78-1.19,16.46-6.56S396.27,293.73,396.27,293.73Z" style="fill:#ebebeb"></path><polygon points="436.8 391.68 404.96 391.68 396.49 352.62 444.46 352.62 436.8 391.68" style="fill:#f0f0f0"></polygon><rect x="393.6" y="352.05" width="53.63" height="11.23" style="fill:#e6e6e6"></rect><path d="M443.92,330.2H263.17a5.87,5.87,0,0,1-5.86-5.86V61.06a5.87,5.87,0,0,1,5.86-5.86H443.92a5.87,5.87,0,0,1,5.86,5.86V324.34A5.87,5.87,0,0,1,443.92,330.2ZM263.17,55.45a5.62,5.62,0,0,0-5.61,5.61V324.34a5.62,5.62,0,0,0,5.61,5.61H443.92a5.61,5.61,0,0,0,5.61-5.61V61.06a5.61,5.61,0,0,0-5.61-5.61Z" style="fill:#e0e0e0"></path><path d="M235.49,330.2H54.75a5.87,5.87,0,0,1-5.87-5.86V61.06a5.87,5.87,0,0,1,5.87-5.86H235.49a5.86,5.86,0,0,1,5.86,5.86V324.34A5.86,5.86,0,0,1,235.49,330.2ZM54.75,55.45a5.62,5.62,0,0,0-5.62,5.61V324.34A5.62,5.62,0,0,0,54.75,330H235.49a5.61,5.61,0,0,0,5.61-5.61V61.06a5.61,5.61,0,0,0-5.61-5.61Z" style="fill:#e0e0e0"></path><rect y="391.27" width="500" height="0.25" style="fill:#e0e0e0"></rect><rect x="51.67" y="405.53" width="16.06" height="0.25" style="fill:#e0e0e0"></rect><rect x="170.35" y="402.82" width="53.53" height="0.25" style="fill:#e0e0e0"></rect><rect x="68.73" y="414.82" width="36.25" height="0.25" style="fill:#e0e0e0"></rect><rect x="378.35" y="402.69" width="43.19" height="0.25" style="fill:#e0e0e0"></rect><rect x="430.45" y="402.69" width="6.33" height="0.25" style="fill:#e0e0e0"></rect><rect x="316.21" y="408.92" width="53.89" height="0.25" style="fill:#e0e0e0"></rect><g id="freepik--freepik--background-complete--inject-2--inject-31"><rect x="76.55" y="94.92" width="124.72" height="137.94" style="fill:#e0e0e0"></rect><rect x="72.57" y="94.92" width="129.36" height="137.94" style="fill:#f0f0f0"></rect><rect x="78.05" y="99.32" width="118.62" height="127.2" style="fill:#fff"></rect><rect x="78.04" y="99.32" width="3.44" height="127.2" style="fill:#e0e0e0"></rect><rect x="81.1" y="190.79" width="115.86" height="3.44" style="fill:#e0e0e0"></rect><rect x="78.04" y="185.05" width="120.46" height="5.76" style="fill:#f0f0f0"></rect><rect x="306.68" y="94.93" width="124.72" height="137.94" style="fill:#e0e0e0"></rect><rect x="306.03" y="94.93" width="129.36" height="137.94" style="fill:#f0f0f0"></rect><rect x="311.29" y="99.33" width="118.62" height="127.2" style="fill:#fff"></rect><rect x="426.49" y="99.33" width="3.44" height="127.2" style="fill:#e0e0e0"></rect><rect x="310.99" y="190.79" width="115.86" height="3.44" style="fill:#e0e0e0"></rect><rect x="309.46" y="185.03" width="120.46" height="5.76" style="fill:#f0f0f0"></rect><rect x="228.59" y="107.12" width="21.33" height="30.18" style="fill:#f0f0f0"></rect><rect x="229.98" y="108.53" width="18.55" height="27.35" style="fill:#fafafa"></rect><rect x="255.39" y="117.58" width="21.33" height="30.18" style="fill:#f0f0f0"></rect><rect x="256.79" y="119" width="18.55" height="27.35" style="fill:#fafafa"></rect><rect x="222.73" y="143.02" width="27.18" height="19.21" style="fill:#f0f0f0"></rect><rect x="224.01" y="144.28" width="24.62" height="16.7" style="fill:#fafafa"></rect><rect x="255.4" y="151.83" width="30.18" height="21.33" style="fill:#f0f0f0"></rect><rect x="256.81" y="153.22" width="27.35" height="18.55" style="fill:#fafafa"></rect><rect x="233.23" y="168.75" width="16.7" height="23.63" style="fill:#f0f0f0"></rect><rect x="234.31" y="169.86" width="14.53" height="21.41" style="fill:#fafafa"></rect><polygon points="192.59 66.65 203.65 75.8 207.37 62.18 192.59 66.65" style="fill:#ebebeb"></polygon><polygon points="212.32 60.77 224 68.51 225.15 55.73 212.32 60.77" style="fill:#ebebeb"></polygon><polygon points="103.67 73.91 112.01 91.72 121.72 74.14 103.67 73.91" style="fill:#ebebeb"></polygon><polygon points="123.07 74.25 136.41 89.04 144.16 73.04 123.07 74.25" style="fill:#ebebeb"></polygon><polygon points="147.11 72.95 159.35 85.19 164.34 70.88 147.11 72.95" style="fill:#ebebeb"></polygon><polygon points="169.4 70.53 184.51 82.15 188.42 67.69 169.4 70.53" style="fill:#ebebeb"></polygon><path d="M166.14,71.57c-45.85,5.56-92.07,2.23-92.83,2.16l.16-2c1.21.1,122,8.78,165.83-25.57l1.32,1.62C223.44,61.16,194.86,68.11,166.14,71.57Z" style="fill:#e0e0e0"></path><polygon points="306.52 66.65 295.47 75.8 291.74 62.18 306.52 66.65" style="fill:#ebebeb"></polygon><polygon points="286.8 60.77 275.12 68.51 273.97 55.73 286.8 60.77" style="fill:#ebebeb"></polygon><polygon points="395.45 73.91 387.11 91.72 377.4 74.14 395.45 73.91" style="fill:#ebebeb"></polygon><polygon points="376.05 74.25 362.7 89.04 354.95 73.04 376.05 74.25" style="fill:#ebebeb"></polygon><polygon points="352 72.95 339.77 85.19 334.78 70.88 352 72.95" style="fill:#ebebeb"></polygon><polygon points="329.71 70.53 314.61 82.15 310.7 67.69 329.71 70.53" style="fill:#ebebeb"></polygon><path d="M333,71.57c45.83,5.56,92.07,2.23,92.82,2.16l-.15-2c-1.22.1-121.95,8.78-165.84-25.57l-1.25,1.62C275.67,61.16,304.24,68.11,333,71.57Z" style="fill:#e0e0e0"></path><path d="M81.93,166.28c-4.22,0-8.76-1.19-11.75-5.34-3.16-4.36-3-8.51-1.64-11.52a15.29,15.29,0,0,1-2.32-2.3,9.24,9.24,0,0,1-1.63-9.63,9.78,9.78,0,0,1,1.12-2.09c-4.79-3.58-6.85-8.69-5.55-14.18A10.82,10.82,0,0,1,62,117.06c-4.6-9.57.41-26.22.63-27l2.22.68c0,.17-4.71,15.67-1.07,24.54a8.58,8.58,0,0,1,6.67-1.17c4.06.79,8.63,4,8.19,6.92-.23,1.48-1.68,3.11-7.33,2.49a11,11,0,0,1-8-4.23,9.9,9.9,0,0,0-.92,2.56c-1.38,5.88,1.91,9.72,4.83,11.87a9.88,9.88,0,0,1,5.43-2.67,7,7,0,0,1,6.77,3.06c1.56,2.17.92,3.53.39,4.15-1.84,2.13-7.08,1.15-11.07-.87-.38-.21-.75-.4-1.13-.62a8.11,8.11,0,0,0-.89,1.67A7,7,0,0,0,68,145.77a12.93,12.93,0,0,0,1.75,1.72l.26-.31a7.39,7.39,0,0,1,9-2.06c2.11,1.18,2.29,2.64,2.2,3.4a4.24,4.24,0,0,1-3.35,3.25,10,10,0,0,1-7.42-1c-1,2.3-.88,5.42,1.57,8.82,5.83,8.05,19.67,2.42,19.81,2.36l.9,2.15A31.15,31.15,0,0,1,81.93,166.28Zm-10.24-17.5a7.53,7.53,0,0,0,5.52.74c1.06-.31,1.66-.87,1.7-1.28s-.36-.74-1-1.11c-1.91-1.06-4.38-.42-6.16,1.57ZM69.33,135l.54.28c4.1,2.09,7.68,2.11,8.25,1.44.07-.08,0-.5-.52-1.28a4.7,4.7,0,0,0-4.59-2.1A7.24,7.24,0,0,0,69.33,135Zm-4.41-17.54a8.71,8.71,0,0,0,6.68,3.84c3.84.43,4.75-.32,4.79-.52.13-.86-2.49-3.53-6.4-4.28a6.24,6.24,0,0,0-5.12,1Z" style="fill:#e0e0e0"></path><path d="M45.87,168.75c-6.11-2-9-8.85-9.09-14.4a15.16,15.16,0,0,1,.71-5,13.08,13.08,0,0,1-2.08-10.71,14.56,14.56,0,0,1,1.92-4.79,19.24,19.24,0,0,1,.16-10.24,12.85,12.85,0,0,1,2.24-4.52c-.18-9.52,12.43-20.94,13.05-21.5l1.56,1.74c-.14.11-10.73,9.7-12.14,17.77a6,6,0,0,1,3.58-.43,5.87,5.87,0,0,1,5.12,5.35,5.31,5.31,0,0,1-3.15,5.53c-1.28.44-3.84.57-6.55-3.55a7.94,7.94,0,0,1-.82-1.55,12.82,12.82,0,0,0-.68,1.82,17.89,17.89,0,0,0-.51,7.42,6,6,0,0,1,3.53-1.51,5.11,5.11,0,0,1,5.12,3,4.92,4.92,0,0,1-.65,5.35c-1.28,1.37-3.39,1.61-5.71.65a6.29,6.29,0,0,1-2.93-2.56,12.85,12.85,0,0,0-.86,2.56,11.05,11.05,0,0,0,.94,7.78,7.47,7.47,0,0,1,3.84-3.16c2.56-.93,4.89-.37,6.17,1.51a5.33,5.33,0,0,1-.38,6.4c-.79.88-3.08,2.69-7.47.41a10,10,0,0,1-1.37-.83,13.2,13.2,0,0,0-.28,3.07c.07,4.75,2.44,10.6,7.46,12.23ZM40.2,148.88A8.39,8.39,0,0,0,41.84,150c2.1,1.09,3.76,1.11,4.66.1a3,3,0,0,0,.19-3.49c-.65-1-1.88-1.19-3.44-.63A5.54,5.54,0,0,0,40.2,148.88ZM40,134.32a4.72,4.72,0,0,0,2.4,2.73c1.41.58,2.56.54,3.15-.11a2.65,2.65,0,0,0,.3-2.82,2.82,2.82,0,0,0-2.91-1.58A4.3,4.3,0,0,0,40,134.32ZM42.16,120a6.59,6.59,0,0,0,1,2.76c1.35,2,2.8,3,3.84,2.65a3.13,3.13,0,0,0,1.57-3.16A3.51,3.51,0,0,0,45.37,119a3.66,3.66,0,0,0-3.21,1Z" style="fill:#e0e0e0"></path><path d="M99.18,98C77.35,121.54,45.42,81.58,59.41,62.88S121.34,74,99.18,98Z" style="fill:#e0e0e0"></path><path d="M56.53,114.9c-31.91-3.84-18.19-53.18,5.12-52.79S88.93,118.85,56.53,114.9Z" style="fill:#ebebeb"></path><path d="M287.77,84.43C266.32,107.59,235,68.39,248.71,50S309.53,61,287.77,84.43Z" style="fill:#e0e0e0"></path><path d="M212.91,84.43C234.36,107.59,265.7,68.39,252,50S191.15,61,212.91,84.43Z" style="fill:#e0e0e0"></path><path d="M256,99.87C287.31,96,273.84,47.74,250.9,48S224.19,103.76,256,99.87Z" style="fill:#ebebeb"></path><path d="M416,167.42a31.61,31.61,0,0,1-11-2.19l.91-2.18c.14,0,14.12,5.75,20-2.39,2.48-3.43,2.59-6.58,1.58-8.91a10.14,10.14,0,0,1-7.49,1,4.31,4.31,0,0,1-3.39-3.29c-.08-.77.09-2.25,2.22-3.44a7.47,7.47,0,0,1,9.12,2.08l.26.31a13,13,0,0,0,1.77-1.79,7.12,7.12,0,0,0,1.3-7.38,9.78,9.78,0,0,0-.92-1.68c-.36.22-.74.41-1.13.62-4,2.05-9.32,3.05-11.19.88-.53-.62-1.19-2,.41-4.19a7.08,7.08,0,0,1,6.84-3.09,10,10,0,0,1,5.47,2.7c3-2.17,6.29-6.05,4.88-12a10.39,10.39,0,0,0-.92-2.59,11.18,11.18,0,0,1-8.05,4.36c-5.73.64-7.19-1-7.42-2.52-.43-2.9,4.18-6.2,8.28-7a8.63,8.63,0,0,1,6.73,1.18c3.68-9-1-24.58-1.08-24.79l2.25-.69c.23.75,5.28,17.57.63,27.24a11.29,11.29,0,0,1,1.88,4.2c1.29,5.55-.78,10.71-5.62,14.34a10.4,10.4,0,0,1,1.14,2.1,9.31,9.31,0,0,1-1.67,9.73,14.73,14.73,0,0,1-2.34,2.33c1.4,3,1.54,7.18-1.65,11.64C424.82,166.22,420.24,167.42,416,167.42Zm6-19.85a4.07,4.07,0,0,0-2,.52c-.67.37-1.07.8-1,1.12s.65,1,1.72,1.3a7.67,7.67,0,0,0,5.59-.75h-.07a5.74,5.74,0,0,0-4.2-2.19Zm2.37-13.48a4.78,4.78,0,0,0-4,2.16c-.56.78-.58,1.2-.52,1.3.58.68,4.19.65,8.33-1.45l.55-.29a7.47,7.47,0,0,0-3.72-1.67,4.6,4.6,0,0,0-.64,0ZM429.7,117a9.36,9.36,0,0,0-1.67.17c-3.88.75-6.53,3.45-6.39,4.32,0,.21,1,1,4.83.53a8.76,8.76,0,0,0,6.75-3.88,5.62,5.62,0,0,0-3.49-1.14Z" style="fill:#e0e0e0"></path><path d="M452.41,169.92l-.71-2.24c5.06-1.64,7.47-7.55,7.54-12.35a14.66,14.66,0,0,0-.28-3.1,11.53,11.53,0,0,1-1.4.84c-4.42,2.3-6.75.48-7.54-.42a5.33,5.33,0,0,1-.37-6.46c1.29-1.91,3.6-2.47,6.22-1.53a7.79,7.79,0,0,1,3.88,3.19,11.27,11.27,0,0,0,.93-7.86,13.09,13.09,0,0,0-.85-2.59,6.47,6.47,0,0,1-3,2.59c-2.34,1-4.44.72-5.77-.66a5,5,0,0,1-.74-5.45,5.18,5.18,0,0,1,5.18-3,6,6,0,0,1,3.57,1.52,18.1,18.1,0,0,0-.52-7.5,15,15,0,0,0-.67-1.84,9.1,9.1,0,0,1-.84,1.57c-2.77,4.15-5.34,4-6.63,3.6a5.35,5.35,0,0,1-3.16-5.59,5.9,5.9,0,0,1,5.17-5.41,6,6,0,0,1,3.63.43c-1.43-8.15-12.14-17.84-12.27-18L445.36,98c.64.57,13.39,12.11,13.2,21.74a12.75,12.75,0,0,1,2.26,4.56,19.45,19.45,0,0,1,.17,10.35,14.62,14.62,0,0,1,2,4.84,13.22,13.22,0,0,1-2.09,10.82,15.45,15.45,0,0,1,.7,5C461.51,161,458.58,167.93,452.41,169.92Zm1.09-23.28a2.16,2.16,0,0,0-1.9.94,3,3,0,0,0,.18,3.53c.92,1,2.59,1,4.71-.1a8.22,8.22,0,0,0,1.67-1.14,5.61,5.61,0,0,0-3.08-2.92,4.76,4.76,0,0,0-1.58-.34Zm1.68-13.3a2.76,2.76,0,0,0-2.69,1.62,2.66,2.66,0,0,0,.29,2.84c.63.66,1.75.7,3.18.12a4.83,4.83,0,0,0,2.44-2.77,4.42,4.42,0,0,0-3-1.8Zm-1.56-13.74a4.07,4.07,0,0,0-4,3.33,3.15,3.15,0,0,0,1.59,3.19c1.09.38,2.59-.63,3.88-2.67a6.73,6.73,0,0,0,1.06-2.8,3.71,3.71,0,0,0-2.53-1.07Z" style="fill:#e0e0e0"></path><path d="M400.3,98.39c22.07,23.83,54.33-16.55,40.19-35.45S377.91,74.22,400.3,98.39Z" style="fill:#e0e0e0"></path><path d="M443.37,115.5c32.25-3.88,18.38-53.73-5.17-53.34S410.66,119.5,443.37,115.5Z" style="fill:#ebebeb"></path></g><rect x="39.95" y="345.29" width="83.24" height="6.05" style="fill:#e0e0e0"></rect><rect x="33.71" y="266.42" width="97.56" height="45.71" style="fill:#e6e6e6"></rect><rect x="33.68" y="311.33" width="9.75" height="80.06" style="fill:#e6e6e6"></rect><rect x="121.52" y="311.31" width="9.75" height="80.06" style="fill:#e6e6e6"></rect><rect x="39.95" y="271.41" width="85.08" height="35.72" style="fill:#ebebeb"></rect><path d="M86.73,288.75a4.24,4.24,0,1,1-4.24-4.23A4.24,4.24,0,0,1,86.73,288.75Z" style="fill:#e0e0e0"></path><rect x="33.71" y="312.13" width="9.72" height="3.73" style="fill:#e0e0e0"></rect><rect x="121.54" y="312.13" width="9.72" height="3.73" style="fill:#e0e0e0"></rect></g><g id="freepik--Shadow--inject-31"><path d="M468.55,447.68c0,3.54-97.85,6.42-218.55,6.42s-218.55-2.88-218.55-6.42,97.85-6.42,218.55-6.42S468.55,444.14,468.55,447.68Z" style="fill:#f5f5f5"></path></g><g id="freepik--Liquid--inject-31"><g style="isolation:isolate;opacity:0.4"><path d="M252.22,447.65c-1-2.24-4.31-5.34-9.87-7.37a47.68,47.68,0,0,0-25.11-1.77c-2.46.47-5.13,1.28-6.3,3.21s-.57,4.23-2,5.88c-1.66,1.91-4.95,1.8-7.72,1.75a45.46,45.46,0,0,0-14.79,2.16c-2.35.76-5,2.16-5,4.33s2.37,3.45,4.56,4.23c4.68,1.66,9.78,2.23,14.82,2.71,14.26,1.38,29.19,2.12,42.45-2.62,3.32-1.18,6.64-2.83,8.37-5.55A7.4,7.4,0,0,0,252.22,447.65Z" style="fill:#fff"></path></g><path d="M252.22,447.65c-1-2.24-4.31-5.34-9.87-7.37a47.68,47.68,0,0,0-25.11-1.77c-2.46.47-5.13,1.28-6.3,3.21s-.57,4.23-2,5.88c-1.66,1.91-4.95,1.8-7.72,1.75a45.46,45.46,0,0,0-14.79,2.16c-2.35.76-5,2.16-5,4.33s2.37,3.45,4.56,4.23c4.68,1.66,9.78,2.23,14.82,2.71,14.26,1.38,29.19,2.12,42.45-2.62,3.32-1.18,6.64-2.83,8.37-5.55A7.4,7.4,0,0,0,252.22,447.65Z" style="fill:#407BFF"></path></g><g id="freepik--Character--inject-31"><path d="M302.47,168.91c-6.93,0-20.67-7.31-34.92-19-8.4-6.93-15.61-14.29-20.29-20.74-4.8-6.61-6.38-11.55-4.43-13.91s7.09-1.76,14.5,1.69c7.22,3.37,15.83,9,24.23,16s15.61,14.29,20.29,20.73c3.4,4.68,6.93,10.89,4.43,13.91A4.69,4.69,0,0,1,302.47,168.91Zm-55.82-54.14a3.75,3.75,0,0,0-3.05,1.08c-1.61,1.94,0,6.57,4.47,12.69,4.63,6.37,11.78,13.67,20.12,20.54,18.51,15.27,34.24,21.52,37.32,17.79,1.6-2,0-6.57-4.47-12.69-4.63-6.38-11.78-13.68-20.12-20.55s-16.87-12.49-24-15.82C252.59,115.8,249.07,114.77,246.65,114.77Z" style="fill:#407BFF"></path><path d="M258.88,152.8c-14.62,0-26.83-2.32-27.31-7.3-.63-6.59,19.8-12.53,39.91-14.47,10.84-1,21.14-1,29,.18,5.71.85,12.59,2.65,12.95,6.4s-6,6.83-11.49,8.75c-7.49,2.64-17.58,4.67-28.42,5.72h0C268.6,152.55,263.61,152.8,258.88,152.8Zm27.39-21.51c-4.64,0-9.6.25-14.69.74-23.88,2.3-39.45,8.77-39,13.38s17,8,40.85,5.67l0,.5,0-.5c10.76-1,20.77-3.05,28.18-5.66,7.11-2.51,11.06-5.32,10.83-7.71s-4.64-4.4-12.1-5.51A98.81,98.81,0,0,0,286.27,131.29Z" style="fill:#407BFF"></path><polygon points="286.4 123.04 293.21 111.66 296.49 114.96 302.31 106.84 304.84 109.38 296.02 120 293.27 116.05 286.4 123.04" style="fill:#407BFF"></polygon><polygon points="276.44 114.93 274.58 97.51 280.67 98.39 280.36 85.19 285.05 85.86 284.18 104.07 278.14 102.1 276.44 114.93" style="fill:#407BFF"></polygon><polygon points="343.46 387.06 345.62 415.78 335.92 415.78 329.46 386.46 343.46 387.06" style="fill:#263238"></polygon><polygon points="378.86 387.52 381.01 441.45 371.31 441.45 364.85 386.46 378.86 387.52" style="fill:#263238"></polygon><polygon points="343.46 387.06 345.62 415.78 335.92 415.78 329.46 386.46 343.46 387.06" style="fill:#fff;opacity:0.30000000000000004"></polygon><polygon points="378.86 387.52 381.01 441.45 371.31 441.45 364.85 386.46 378.86 387.52" style="fill:#fff;opacity:0.30000000000000004"></polygon><polygon points="131.9 387.59 129.74 441.6 139.44 441.6 145.91 386.46 131.9 387.59" style="fill:#263238"></polygon><polygon points="163.63 387.06 161.48 415.78 171.18 415.78 177.64 386.46 163.63 387.06" style="fill:#263238"></polygon><polygon points="131.9 387.59 129.74 441.6 139.44 441.6 145.91 386.46 131.9 387.59" style="fill:#fff;opacity:0.30000000000000004"></polygon><polygon points="163.63 387.06 161.48 415.78 171.18 415.78 177.64 386.46 163.63 387.06" style="fill:#fff;opacity:0.30000000000000004"></polygon><path d="M383.85,265.44l-40.19-7.92L333.31,262v52.46l20.22,13.65s34.82-15.51,34.58-15.9S383.85,265.44,383.85,265.44Z" style="fill:#407BFF"></path><g style="isolation:isolate;opacity:0.4"><path d="M383.85,265.44l-40.19-7.92L333.31,262v52.46l20.22,13.65s34.82-15.51,34.58-15.9S383.85,265.44,383.85,265.44Z"></path></g><path d="M114.37,267.12l40.83-11.4,10,5.83V314L146,329.14s-35.77-17-35.52-17.38S114.37,267.12,114.37,267.12Z" style="fill:#407BFF"></path><path d="M114.37,267.12l40.83-11.4,10,5.83V314L146,329.14s-35.77-17-35.52-17.38S114.37,267.12,114.37,267.12Z" style="isolation:isolate;opacity:0.4"></path><rect x="133.01" y="329.14" width="227.7" height="46.95" style="fill:#407BFF"></rect><rect x="133.01" y="329.14" width="227.7" height="46.95" style="opacity:0.2"></rect><path d="M170.7,233.16H329.05a15.5,15.5,0,0,1,15.5,15.5v65.77a0,0,0,0,1,0,0H155.2a0,0,0,0,1,0,0V248.67A15.5,15.5,0,0,1,170.7,233.16Z" style="fill:#407BFF"></path><path d="M118.23,266.73h11.67a16.58,16.58,0,0,1,16.58,16.58v90.31a0,0,0,0,1,0,0H118.23A16.58,16.58,0,0,1,101.65,357V283.31A16.58,16.58,0,0,1,118.23,266.73Z" style="fill:#407BFF"></path><polygon points="146.47 329.14 154.61 314.01 344.56 314.01 353.53 329.14 146.47 329.14" style="fill:#407BFF"></polygon><polygon points="146.47 329.14 154.61 314.01 344.56 314.01 353.53 329.14 146.47 329.14" style="isolation:isolate;opacity:0.5"></polygon><path d="M370.11,265.25h28.25a0,0,0,0,1,0,0v91a16.58,16.58,0,0,1-16.58,16.58H370.11a16.58,16.58,0,0,1-16.58-16.58V281.83A16.58,16.58,0,0,1,370.11,265.25Z" transform="translate(751.88 638.11) rotate(180)" style="fill:#407BFF"></path><path d="M118.23,266.73h11.67a16.58,16.58,0,0,1,16.58,16.58v90.31a0,0,0,0,1,0,0H118.23A16.58,16.58,0,0,1,101.65,357V283.31A16.58,16.58,0,0,1,118.23,266.73Z" style="opacity:0.2"></path><path d="M370.11,265.25h28.25a0,0,0,0,1,0,0v91a16.58,16.58,0,0,1-16.58,16.58H370.11a16.58,16.58,0,0,1-16.58-16.58V281.83A16.58,16.58,0,0,1,370.11,265.25Z" transform="translate(751.88 638.11) rotate(180)" style="opacity:0.2"></path><path d="M170.7,233.16H329.05a15.5,15.5,0,0,1,15.5,15.5v65.77a0,0,0,0,1,0,0H155.2a0,0,0,0,1,0,0V248.67A15.5,15.5,0,0,1,170.7,233.16Z" style="opacity:0.2"></path><rect x="108.59" y="372.53" width="286.28" height="19.16" rx="4.25" style="fill:#407BFF"></rect><rect x="108.59" y="372.53" width="286.28" height="19.16" rx="4.25" style="opacity:0.2"></rect><path d="M146.47,329.14v43.08h2V329.14Z" style="isolation:isolate;opacity:0.30000000000000004"></path><path d="M351,329.14v43.08h1.95V329.14Z" style="isolation:isolate;opacity:0.30000000000000004"></path><path d="M108.76,374.84h286a3.56,3.56,0,0,0-2.49-2.31c-14.22,0-267.55.36-281.78.36A3.15,3.15,0,0,0,108.76,374.84Z" style="isolation:isolate;opacity:0.30000000000000004"></path><g style="opacity:0.6000000000000001"><path d="M322.35,233.16H283.42c-2,6.7-2.29,17.43-1.4,24.35.23,1.78.59,3.68,1.91,4.89s3.48,1.43,5.38,1.5c9.17.34,20.56,2.89,29.73,3.23C319.07,256.47,318.65,243.17,322.35,233.16Z" style="fill:#fff"></path></g><polygon points="261.61 392.93 268.24 425.52 283.67 424.31 284.95 391.37 261.61 392.93" style="fill:#eec1bb"></polygon><path d="M268.67,442.94l10,.31a7.61,7.61,0,0,1,3.25-.83c1.18.18,5.28,1.1,5.28,1.1l26.6.83a22.89,22.89,0,0,0-.68-3,13.22,13.22,0,0,0-1.18-2.79,7.51,7.51,0,0,0-6.22-4C302,434.2,290.55,426,290.55,426a7,7,0,0,1-4.3-6.16c0-1.7-2.47-3.85-3.66-4.06-2.42-.42-3.82,1.08-4.25,3.5h0a3.53,3.53,0,0,1-5.67,1.25l-.92-.85s-5.12-1.7-4.93,1.1c.1,1.6.84,8.74,1.27,14.39.1,1.32.19,2.57.27,3.66h0C268.55,441.27,268.67,442.94,268.67,442.94Z" style="fill:#263238"></path><g style="opacity:0.2"><path d="M313.82,444.35l-26.6-.83s-4.1-.92-5.28-1.1a7.61,7.61,0,0,0-3.25.83l-10-.31s-.12-1.67-.3-4.1l44.77,2.5A22.89,22.89,0,0,1,313.82,444.35Z" style="fill:#fff"></path></g><path d="M296.29,429.09a.36.36,0,0,0-.45,0,4.58,4.58,0,0,0-1.65,1.78c-.21.4.37.82.59.41a3.92,3.92,0,0,1,1.44-1.57.36.36,0,0,0,.08-.56Z" style="fill:#407BFF"></path><path d="M294.22,427.78a.38.38,0,0,0-.46,0,4.65,4.65,0,0,0-1.65,1.78c-.21.4.38.82.59.41a4.17,4.17,0,0,1,1.44-1.58.35.35,0,0,0,.08-.55Z" style="fill:#407BFF"></path><path d="M292.07,426.55a.36.36,0,0,0-.46-.05,4.49,4.49,0,0,0-1.64,1.78c-.21.4.37.81.58.41a4.11,4.11,0,0,1,1.45-1.58.36.36,0,0,0,.08-.56Z" style="fill:#407BFF"></path><polygon points="308.06 393.42 315.38 425.87 330.78 424.33 331.36 391.37 308.06 393.42" style="fill:#eec1bb"></polygon><path d="M316.18,443.27l10,.1a7.62,7.62,0,0,1,3.22-.9c1.19.16,5.3,1,5.3,1l26.62.27a21.87,21.87,0,0,0-.75-3,13.77,13.77,0,0,0-1.23-2.77,7.52,7.52,0,0,0-6.31-3.86c-3.72-.27-15.37-8.22-15.37-8.22a7,7,0,0,1-4.42-6.06c-.07-1.7-2.56-3.8-3.75-4-2.43-.38-3.8,1.15-4.18,3.58h0a3.52,3.52,0,0,1-5.64,1.37l-.93-.83s-5.16-1.59-4.92,1.21c.15,1.6,1,8.72,1.58,14.36.13,1.31.25,2.56.36,3.65h0C316,441.61,316.18,443.27,316.18,443.27Z" style="fill:#263238"></path><g style="opacity:0.2"><path d="M361.35,443.73l-26.62-.27s-4.11-.83-5.3-1a7.62,7.62,0,0,0-3.22.9l-10-.1s-.16-1.66-.39-4.09l44.81,1.55A21.87,21.87,0,0,1,361.35,443.73Z" style="fill:#fff"></path></g><path d="M343.5,428.84a.38.38,0,0,0-.46,0,4.58,4.58,0,0,0-1.6,1.82c-.21.4.39.8.59.39a4.08,4.08,0,0,1,1.41-1.6.36.36,0,0,0,.07-.56Z" style="fill:#407BFF"></path><path d="M341.4,427.58a.36.36,0,0,0-.46-.05,4.68,4.68,0,0,0-1.61,1.82c-.2.41.39.81.6.4a4,4,0,0,1,1.41-1.61.36.36,0,0,0,.06-.56Z" style="fill:#407BFF"></path><path d="M339.23,426.39a.36.36,0,0,0-.46,0,4.5,4.5,0,0,0-1.61,1.81c-.2.41.39.81.59.4a4.14,4.14,0,0,1,1.42-1.61.36.36,0,0,0,.06-.56Z" style="fill:#407BFF"></path><g id="freepik--freepik--group--inject-2--inject-31"><path d="M337.12,421.65l-26,2.11L294,328.06s-35.16,4.9-65.26-2.65a54.34,54.34,0,0,1-12-4.39c-26-13.82-26.81-44.3-26.81-44.3l65.8-.6.62,5s46.68,12.61,61.63,22c5.22,3.24,8.23,17.27,10,34.22C331.24,369.26,337.12,421.65,337.12,421.65Z" style="fill:#263238"></path><path d="M287,329.24s-1.28-20.49-10-26.73c-8.95-6.4-33.38-12.57-33.38-12.57s28.94,13.64,30.14,19.29,5.82,19.85,5.82,19.85Z" style="isolation:isolate;opacity:0.2"></path><path d="M190,276.86s-6.87,35,11.35,44.29,45.82,8,45.82,8l16.52,95.31,26.58-2.64S286.42,314,271.6,302.37c-4-3.13-40.74-16.61-40.74-16.61Z" style="fill:#263238"></path></g><g id="freepik--freepik--Character--inject-283--inject-31"><path d="M262.8,224.76l-5.89-20.42c-4.38-1.51-6.05-10.13-4.55-14.53s5.29-6.74,9.68-5.25l2.51,2.07,20,27.32-5.44-32.06,10.61-2.83,12.41,43.42c.07.22.14.43.2.65,1.86,6.65-4.57,15.37-11.45,14.91a52.14,52.14,0,0,1-11.17-2.67C273.61,233.3,262.8,224.76,262.8,224.76Z" style="fill:#407BFF"></path><path d="M279.68,181.74l-.81-1.63a25.55,25.55,0,0,1,5.76-15.23l4-4.94,4.74,7.66-4.46,11.67Z" style="fill:#eec1bb"></path><path d="M287.08,162.88l-.95-5.69,4.77-3.33s5,10.75,2.5,13.81C288.34,173.87,287.08,162.88,287.08,162.88Z" style="fill:#eec1bb"></path><polygon points="263.38 230.8 267.52 199.28 267.74 213.5 263.38 230.8" style="isolation:isolate;opacity:0.2"></polygon><path d="M268,196.79C269,188,259.71,183,259.71,183c-5.78-2.77,2.72-15.57-14.86-5.92,0,0-3.55-1.52-18.33-1.14l-12.66.24a16.33,16.33,0,0,0-12.75,7.57,33.29,33.29,0,0,0-4.39,12.2c-3.75,14.83-3.74,34.63-4.92,46.95-3.56,36.8-5.75,29.13-3,35.36l66.8.62s3.42,1.38,4.54-1.64c.91-2.45-2.22-4.83-2.22-4.83C262.27,234.64,266.94,205.68,268,196.79Z" style="fill:#407BFF"></path><path d="M244.28,206.14l-8.09,58.33s7.69,13.08,7.65,12.67,5.84-9.12,5.84-9.12a281.8,281.8,0,0,0-.24-29.43c.25-12.44-1.3-19-2-33.38-.5.81-2.44,1.57-3.12.93" style="fill:#263238"></path><path d="M243.35,210.75l-8.09,58.34s7.69,13.08,7.65,12.67,5.84-9.12,5.84-9.12a281.8,281.8,0,0,0-.24-29.43c.25-12.45-1.3-19-2-33.38-.5.8-2.45,1.57-3.12.92" style="isolation:isolate;opacity:0.2"></path><path d="M247.28,207.3a14.84,14.84,0,0,0,1.08-2.19c.23-1.08,2.35-13.48,2.35-13.48-.44-.61-1-.77-1.48-1.38-.41.81-2,11.89-2.6,12.57l-1.37-.1c-1-3-6.36-14.49-6.31-15.21-.83-.07-1.4,1.33-1.81,2,.73,1.19,5.5,14.8,7.26,17.67A6.51,6.51,0,0,0,247.28,207.3Z" style="fill:#263238"></path><path d="M237.7,253.94c-11.55-.46-36-45.35-36-45.35-3-4-4.17-21.34-.16-24.31s9.12-3.84,12.1.16l0,0,30.51,49.14,18.6.1-1.35,12.81L248.36,252C246.38,252.7,239.75,253.48,237.7,253.94Z" style="isolation:isolate;opacity:0.2"></path><path d="M239.44,248.63C227.9,248.16,201,206.31,201,206.31c-6.14-10.21-1.38-23,2.63-26s8.73-5.21,11.72-1.21v0l6.07,9.78,24.44,39.36,34.69-11s5.52,9.4,5.6,10.23L250.1,246.67C248.13,247.38,241.49,248.17,239.44,248.63Z" style="fill:#407BFF"></path></g><path d="M277,218.43s.74-2.8,1.2-3.86,2.53-6.46,2.53-6.46,2.71-.76,3,1.06,2.63,6.14,3.06,8.32-.63,10-.63,10Z" style="fill:#eec1bb"></path><path d="M249.29,158.12l2.25,9.68L254.6,181a11.68,11.68,0,0,0-3.3,2.35c-1.29,1-2.13,5.44-1.62,6.44.9,1.19,1.72,6-5.79,1.18-4.51-2.46-8.2-3.5-9.45-8.48-.43-2.7-1.06-4.72-.63-5C241.24,173.72,246.14,165.24,249.29,158.12Z" style="fill:#eec1bb"></path><path d="M253.9,177.75l-1.49-9.15-.52.53a20.15,20.15,0,0,0-2,2.54c-2,3.08-1.14,8.83.89,12.18l.57-.52a13.71,13.71,0,0,1,3.06-2.3h.22Z" style="isolation:isolate;opacity:0.2"></path><path d="M256.09,145.3c-6.85,10.31-10.92,16-9.72,24.76,1.79,13.21,17,17.81,26.84,9.73,8.83-7.27,18.55-22.91,11.78-34A17.07,17.07,0,0,0,256.09,145.3Z" style="fill:#eec1bb"></path><path d="M263.8,132.51c20.85-.65,26.73,15.63,25.75,25.44l-19.64-17.37c-.84-.78-2.12-.33-3.4,1.45,0,0-4.2,18.19-19.63,16.56-2.17-4.28,1-12.62,2.65-17C251.93,135.05,257,128,263.8,132.51Z" style="fill:#263238"></path><path d="M268,158.81c-.76,1-.84,2.22-.18,2.72s1.82.07,2.59-.94.84-2.22.17-2.71S268.8,157.8,268,158.81Z" style="fill:#263238"></path><path d="M277.78,166.49c-.77,1-.85,2.22-.18,2.71s1.82.08,2.58-.93.85-2.22.18-2.72S278.54,165.48,277.78,166.49Z" style="fill:#263238"></path><path d="M275,163.49s-.6,7.43-1.12,10.24c-2.36.21-4.33-2.21-4.33-2.21Z" style="fill:#d4827d"></path><path d="M274.7,152.84a.58.58,0,0,0-.58-.13,4.79,4.79,0,0,1-4.25-.61.6.6,0,0,0-.84.07.59.59,0,0,0,.08.83,5.93,5.93,0,0,0,5.36.83.58.58,0,0,0,.39-.73A.57.57,0,0,0,274.7,152.84Z" style="fill:#263238"></path><path d="M282.53,160.56a.57.57,0,0,0-.34-.05.6.6,0,0,0-.5.68,5.82,5.82,0,0,0,3.12,4.38.59.59,0,0,0,.78-.3.58.58,0,0,0-.3-.77,4.57,4.57,0,0,1-2.42-3.5A.59.59,0,0,0,282.53,160.56Z" style="fill:#263238"></path><path d="M273.13,179.87c-11.56,8.59-24.84,2.09-26.68-9.13a24.56,24.56,0,0,1-.25-2.57l.06-.82c.61-3.95,1.45-8.06,3.94-11.28a7.71,7.71,0,0,0,1.44,0c.27-.08,2.64.28,2.6.58-1,6.1,4,8.71,8.52,12.34,1.42,1.14,3.62,1.93,5.79,3.75C268.54,172.81,273.34,177.14,273.13,179.87Z" style="isolation:isolate;opacity:0.30000000000000004"></path><path d="M246.51,151a11.92,11.92,0,0,0-.27,8.44c1.28,3.52,5.54,2.65,7.61-.42,1.83-2.74,2.61-7.75.17-10.28S247.9,147.69,246.51,151Z" style="fill:#eec1bb"></path><path d="M252.56,156.15a.19.19,0,0,1-.12,0,.25.25,0,0,1-.09-.34,5.9,5.9,0,0,0,.82-2.92,3.67,3.67,0,0,0-.69-2.35,2,2,0,0,0-2.1-.72.25.25,0,0,1-.32-.16.25.25,0,0,1,.16-.31,2.47,2.47,0,0,1,2.65.88,4.15,4.15,0,0,1,.8,2.66,6.35,6.35,0,0,1-.89,3.18A.27.27,0,0,1,252.56,156.15Z" style="opacity:0.2"></path><path d="M267.86,175.93a8.59,8.59,0,0,0-5.72-3.73.28.28,0,0,0-.33.22v0a.32.32,0,0,0,.25.34,8.22,8.22,0,0,1,5.87,4.44.32.32,0,0,0,.4.16.27.27,0,0,0,.17-.36v0h0A11.32,11.32,0,0,0,267.86,175.93Z" style="fill:#263238"></path><path d="M262.56,135.11a71.73,71.73,0,0,0,11.8,13.69,34.25,34.25,0,0,1,6.11,7.76c.73-2.82.08-4.37-.87-7.12a27.09,27.09,0,0,1,4.66,12.17,14.32,14.32,0,0,0,2.35-9.22,24.2,24.2,0,0,1,3.06,14.94,28.54,28.54,0,0,0,2.43-23.55c-2.72-7.81-13.9-18.23-22.07-16.84C261.09,127.25,262.56,135.11,262.56,135.11Z" style="fill:#263238"></path><polygon points="245.46 197.45 250.2 194.63 254.2 199.24 251.59 184.16 252.74 196.27 249.67 192.88 245.46 197.45" style="isolation:isolate;opacity:0.2"></polygon><path d="M241.15,171c.36,1,5.94,14.77,5.94,14.77l.49,5.52,2-5.9,1.71-2.1,1.62,13.24-3.18-3.69-4.24,4.55L243,193.69l-7.15,6.2h0l-4.64-23.6Z" style="fill:#407BFF"></path><polygon points="231.47 176.27 236.72 196.65 243.94 190.76 245.44 197.3 242.98 193.69 236.09 199.5 231.47 176.27 231.47 176.27" style="isolation:isolate;opacity:0.2"></polygon><path d="M197.4,277.31s9.78,15,17.79,15,17.34-16.16,17.34-16.16Z" style="fill:#407BFF"></path><polygon points="237.62 211.9 221.46 188.92 245.9 228.28 261.81 223.25 246.15 226.35 237.62 211.9" style="isolation:isolate;opacity:0.2"></polygon><path d="M173.39,289.8c-2.24-5.7-4-6-5.23-6.71s-2-1-2.59-2.22-3.19-6.36-4-8-2.6-3.9-2.74-4.87a1.1,1.1,0,0,0,0-.18,4.65,4.65,0,0,0-2.81.62,5.42,5.42,0,0,0-.5.33,3.25,3.25,0,0,1-1.32.64l-.66.12a3.85,3.85,0,0,0-1.33.36,2.9,2.9,0,0,0-.69.49c.09.14.2.3.35.5.59.79.89,3.63,1.49,5.38s2.37,7.28,2.83,8.52.1,2.06-.26,3.4-1.42,2.82,1,8.45,7.72,18.17,7.72,18.17a18,18,0,0,0,.79,1.81,5.76,5.76,0,0,0,2.74,2.92,4.23,4.23,0,0,0,3-.27l4-1.64c1.51-.62,3-1.24,4-1.68a4.42,4.42,0,0,0,2.23-1.73c1.12-2.06,0-4.25-.73-6C180.72,308.14,175.63,295.51,173.39,289.8Z" style="fill:#407BFF"></path><rect x="150.98" y="268.04" width="8.45" height="2.37" rx="0.74" transform="translate(-90.57 79.06) rotate(-22.31)" style="fill:#407BFF"></rect><g style="isolation:isolate;opacity:0.4"><path d="M173.39,289.8c-2.24-5.7-4-6-5.23-6.71s-2-1-2.59-2.22-3.19-6.36-4-8-2.6-3.9-2.74-4.87a1.1,1.1,0,0,0,0-.18,4.65,4.65,0,0,0-2.81.62,5.42,5.42,0,0,0-.5.33,3.25,3.25,0,0,1-1.32.64l-.66.12a3.85,3.85,0,0,0-1.33.36,2.9,2.9,0,0,0-.69.49c.09.14.2.3.35.5.59.79.89,3.63,1.49,5.38s2.37,7.28,2.83,8.52.1,2.06-.26,3.4-1.42,2.82,1,8.45,7.72,18.17,7.72,18.17a18,18,0,0,0,.79,1.81,5.76,5.76,0,0,0,2.74,2.92,4.23,4.23,0,0,0,3-.27l4-1.64c1.51-.62,3-1.24,4-1.68a4.42,4.42,0,0,0,2.23-1.73c1.12-2.06,0-4.25-.73-6C180.72,308.14,175.63,295.51,173.39,289.8Z" style="fill:#fff"></path><rect x="150.98" y="268.04" width="8.45" height="2.37" rx="0.74" transform="translate(-90.57 79.06) rotate(-22.31)" style="fill:#fff"></rect></g><g style="isolation:isolate;opacity:0.4"><path d="M167.36,284.55l-.44-.25a5.24,5.24,0,0,1-2.61-2.48c-.29-.63-1.19-2.43-2.07-4.17l0,0c-.75-1.48-1.52-3-1.9-3.8-.13-.26-1.69-4-1.86-4.26l-4.92,2c.08.33,1.28,4.19,1.37,4.47.29.82.82,2.46,1.34,4v0c.61,1.85,1.23,3.77,1.47,4.42a5.25,5.25,0,0,1-.1,3.6c0,.15-.09.31-.14.48s-.1.36-.16.55c-.36,1.08-.85,2.57,1.14,7.16.87,2,1.75,4,2.61,6.07,1.51,3.58,3.07,7.14,4.53,10.74.59,1.46,1.1,2.9,2.63,3.76s3.55-.19,5-.77a50.53,50.53,0,0,0,4.7-2.09,4.86,4.86,0,0,0,2-1.65c.72-1.23-.39-3.26-.82-4.32-1.07-2.69-2.16-5.37-3.24-8.06-1.24-3.1-2.49-6.2-3.71-9.31-1.82-4.65-3.22-5.36-4.23-5.88Z" style="fill:#fff"></path></g><rect x="162.87" y="291.57" width="11.75" height="19.93" rx="3.83" transform="translate(-101.83 86.61) rotate(-22.31)" style="fill:#407BFF"></rect></g><g id="freepik--Beverages--inject-31"><path d="M115.71,406.37l.11-33.95h-6.48l-.13,33.95a10.33,10.33,0,0,1-4.59,8.56h0A10.31,10.31,0,0,0,100,423.5l-.11,31.55h24.73l.11-31.55a10.25,10.25,0,0,0-4.52-8.59h0A10.3,10.3,0,0,1,115.71,406.37Z" style="fill:#263238"></path><rect x="103.24" y="425.05" width="18.34" height="24.74" transform="translate(-325.4 548.31) rotate(-89.8)" style="fill:#fff;isolation:isolate;opacity:0.4"></rect><path d="M119.56,437.63a7.21,7.21,0,1,1,0-.05Z" style="fill:#fff;isolation:isolate;opacity:0.6000000000000001"></path><path d="M57.56,440.76V424.41l15.79-15.7a1.06,1.06,0,0,0-.74-1.81l-33.24-.11a1.06,1.06,0,0,0-.75,1.81l15.69,15.79v16.37l-6,4a.75.75,0,0,0,.42,1.36H63.07a.75.75,0,0,0,.42-1.36Z" style="fill:#407BFF"></path><path d="M57.56,440.76V424.41l15.79-15.7a1.06,1.06,0,0,0-.74-1.81l-33.24-.11a1.06,1.06,0,0,0-.75,1.81l15.69,15.79v16.37l-6,4a.75.75,0,0,0,.42,1.36H63.07a.75.75,0,0,0,.42-1.36Z" style="fill:#fff;isolation:isolate;opacity:0.6000000000000001"></path><path d="M46.66,413.74,56,423l9-9a.6.6,0,0,0-.16-.22Z" style="fill:#407BFF"></path><path d="M142,446.9l16.34.13L173.94,463a1,1,0,0,0,1.49,0,1.11,1.11,0,0,0,.32-.75l.38-33.23a1.05,1.05,0,0,0-1-1.07,1.1,1.1,0,0,0-.76.3l-15.92,15.56L142,443.65l-4-6a.74.74,0,0,0-1-.2.7.7,0,0,0-.33.6l-.12,14.33a.74.74,0,0,0,.75.74.75.75,0,0,0,.61-.32Z" style="fill:#407BFF"></path><path d="M142,446.9l16.34.13L173.94,463a1,1,0,0,0,1.49,0,1.11,1.11,0,0,0,.32-.75l.38-33.23a1.05,1.05,0,0,0-1-1.07,1.1,1.1,0,0,0-.76.3l-15.92,15.56L142,443.65l-4-6a.74.74,0,0,0-1-.2.7.7,0,0,0-.33.6l-.12,14.33a.74.74,0,0,0,.75.74.75.75,0,0,0,.61-.32Z" style="fill:#fff;isolation:isolate;opacity:0.6000000000000001"></path><path d="M189.24,401.12H205.7s-.64,16.22-1.74,19.66-2.46,9.06-2.46,22.94H185.63c0-13.88-1.37-19.48-2.45-22.94s-1.72-19.66-1.72-19.66Z" style="fill:#407BFF"></path><path d="M189.24,401.12H205.7s-.64,16.22-1.74,19.66-2.46,9.06-2.46,22.94H185.63c0-13.88-1.37-19.48-2.45-22.94s-1.72-19.66-1.72-19.66Z" style="fill:#fff;isolation:isolate;opacity:0.6000000000000001"></path><path d="M203.48,415.72a26.62,26.62,0,0,1-.71,4.61c-1.23,3.84-2.46,9.44-2.46,22.11H187c0-12.6-1.35-18.2-2.58-22.11a31.32,31.32,0,0,1-.71-4.61Z" style="fill:#fff;isolation:isolate;opacity:0.6000000000000001"></path><path d="M439.34,440.77c6.27.32,7.32-1.22,8.48-2s1.82-1.46,3.18-1.47,7.29-.29,9.19-.33,4.75-.79,5.71-.5l.18.05a4.73,4.73,0,0,0,.62-2.89,5,5,0,0,0-.1-.6,3.24,3.24,0,0,1,0-1.51c.05-.23.11-.45.17-.66a4.07,4.07,0,0,0,.22-1.39,3.06,3.06,0,0,0-.16-.86c-.17,0-.37.06-.62.12-1,.22-3.77-.72-5.66-.89s-7.8-.87-9.15-1-2-.77-3.07-1.68-2-2.52-8.32-2.63-20.26-.48-20.26-.48a17,17,0,0,0-2,0,5.85,5.85,0,0,0-3.89,1.32,4.34,4.34,0,0,0-1,2.93c-.06,1.14-.12,2.78-.18,4.46s-.11,3.32-.13,4.45a4.56,4.56,0,0,0,.67,2.82c1.45,1.93,4,1.79,6,1.87C419.1,439.85,433.06,440.44,439.34,440.77Z" style="fill:#407BFF"></path><rect x="461.94" y="431.29" width="8.67" height="2.43" rx="0.74" transform="translate(915.46 -17.72) rotate(92.09)" style="fill:#407BFF"></rect><g style="isolation:isolate;opacity:0.4"><path d="M439.34,440.77c6.27.32,7.32-1.22,8.48-2s1.82-1.46,3.18-1.47,7.29-.29,9.19-.33,4.75-.79,5.71-.5l.18.05a4.73,4.73,0,0,0,.62-2.89,5,5,0,0,0-.1-.6,3.24,3.24,0,0,1,0-1.51c.05-.23.11-.45.17-.66a4.07,4.07,0,0,0,.22-1.39,3.06,3.06,0,0,0-.16-.86c-.17,0-.37.06-.62.12-1,.22-3.77-.72-5.66-.89s-7.8-.87-9.15-1-2-.77-3.07-1.68-2-2.52-8.32-2.63-20.26-.48-20.26-.48a17,17,0,0,0-2,0,5.85,5.85,0,0,0-3.89,1.32,4.34,4.34,0,0,0-1,2.93c-.06,1.14-.12,2.78-.18,4.46s-.11,3.32-.13,4.45a4.56,4.56,0,0,0,.67,2.82c1.45,1.93,4,1.79,6,1.87C419.1,439.85,433.06,440.44,439.34,440.77Z" style="fill:#fff"></path><rect x="461.94" y="431.29" width="8.67" height="2.43" rx="0.74" transform="translate(915.46 -17.72) rotate(92.09)" style="fill:#fff"></rect></g><g style="isolation:isolate;opacity:0.4"><path d="M446.8,437.36l.42-.3a5.36,5.36,0,0,1,3.42-1.39c.71,0,2.78-.09,4.77-.17h0l4.36-.17c.3,0,4.42.11,4.77.07l.2-5.45c-.35-.06-4.47-.58-4.76-.61-.89-.08-2.65-.27-4.34-.46h-.05c-2-.22-4-.44-4.75-.5a5.35,5.35,0,0,1-3.32-1.62l-.39-.33c-.15-.12-.29-.25-.44-.39-.87-.79-2.05-1.88-7.17-2l-6.79-.14c-4-.1-8-.16-11.95-.32-1.62-.06-3.17-.2-4.63.87-1.31,1-1.32,3.39-1.39,5-.07,1.75-.14,3.53,0,5.28a5.17,5.17,0,0,0,.72,2.51c.85,1.2,3.21,1,4.38,1.07l8.91.39c3.42.15,6.84.3,10.26.48,5.12.26,6.38-.74,7.3-1.47Z" style="fill:#fff"></path></g><rect x="424.32" y="421.23" width="12.05" height="20.45" rx="3.83" transform="matrix(-0.04, 1, -1, -0.04, 877.18, 17.11)" style="fill:#407BFF"></rect><path d="M415.63,398.86h16.46s-.64,16.21-1.75,19.65-2.45,9.07-2.45,22.94H412c0-13.87-1.38-19.48-2.46-22.94s-1.72-19.65-1.72-19.65Z" style="fill:#407BFF"></path><path d="M415.63,398.86h16.46s-.64,16.21-1.75,19.65-2.45,9.07-2.45,22.94H412c0-13.87-1.38-19.48-2.46-22.94s-1.72-19.65-1.72-19.65Z" style="fill:#fff;isolation:isolate;opacity:0.6000000000000001"></path></g></svg>
